<svg xmlns="http://www.w3.org/2000/svg" xmlns:xlink="http://www.w3.org/1999/xlink" width="1366" zoomAndPan="magnify" viewBox="0 0 1024.5 374.999991" height="500" preserveAspectRatio="xMidYMid meet" version="1.2"><defs><clipPath id="26139b85b3"><path d="M 0 0.0898438 L 1024 0.0898438 L 1024 374.90625 L 0 374.90625 Z M 0 0.0898438 "/></clipPath><clipPath id="9b8e1ebb4d"><path d="M 0 169.976562 L 204.902344 169.976562 L 204.902344 333.386719 L 0 333.386719 Z M 0 169.976562 "/></clipPath><clipPath id="e7852d0775"><path d="M 68.304688 329.554688 C 78.804688 331.867188 90.738281 333.386719 102.457031 333.386719 C 114.171875 333.386719 125.445312 332.085938 135.832031 329.769531 C 136.054688 329.699219 136.277344 329.699219 136.496094 329.625 C 175.511719 320.367188 204.246094 295.917969 204.800781 267.34375 L 204.800781 169.976562 L 0 169.976562 L 0 267.269531 C 0.550781 296.0625 28.847656 320.511719 68.304688 329.554688 Z M 68.304688 329.554688 "/></clipPath><clipPath id="3600fa6d49"><path d="M 409.601562 169.976562 L 614.5 169.976562 L 614.5 333.386719 L 409.601562 333.386719 Z M 409.601562 169.976562 "/></clipPath><clipPath id="5224edf7d1"><path d="M 477.902344 329.554688 C 488.402344 331.867188 500.339844 333.386719 512.054688 333.386719 C 523.769531 333.386719 535.042969 332.085938 545.433594 329.769531 C 545.65625 329.699219 545.875 329.699219 546.097656 329.625 C 585.113281 320.367188 613.847656 295.917969 614.398438 267.34375 L 614.398438 169.976562 L 409.601562 169.976562 L 409.601562 267.269531 C 410.152344 296.0625 438.445312 320.511719 477.902344 329.554688 Z M 477.902344 329.554688 "/></clipPath><clipPath id="f2f185ea56"><path d="M 819.199219 169.976562 L 1024 169.976562 L 1024 333.386719 L 819.199219 333.386719 Z M 819.199219 169.976562 "/></clipPath><clipPath id="e7ac33531f"><path d="M 887.503906 329.554688 C 898.003906 331.867188 909.941406 333.386719 921.65625 333.386719 C 933.371094 333.386719 944.644531 332.085938 955.035156 329.769531 C 955.253906 329.699219 955.476562 329.699219 955.695312 329.625 C 994.710938 320.367188 1023.449219 295.917969 1024 267.34375 L 1024 169.976562 L 819.199219 169.976562 L 819.199219 267.269531 C 819.753906 296.0625 848.046875 320.511719 887.503906 329.554688 Z M 887.503906 329.554688 "/></clipPath><clipPath id="bd74bc3a2b"><path d="M 0 0.0898438 L 1024 0.0898438 L 1024 272.441406 L 0 272.441406 Z M 0 0.0898438 "/></clipPath><clipPath id="7980e4b873"><path d="M 204.503906 208.753906 L 409.589844 208.753906 L 409.589844 374.898438 L 204.503906 374.898438 Z M 204.503906 208.753906 "/></clipPath><clipPath id="4d3e8780e1"><path d="M 341.289062 212.652344 C 330.789062 210.296875 318.851562 208.753906 307.136719 208.753906 C 295.417969 208.753906 284.144531 210.078125 273.757812 212.433594 C 273.535156 212.503906 273.316406 212.503906 273.09375 212.578125 C 234.078125 221.992188 205.34375 246.851562 204.789062 275.902344 L 204.789062 374.898438 L 409.589844 374.898438 L 409.589844 275.976562 C 409.039062 246.707031 380.742188 221.847656 341.289062 212.652344 Z M 341.289062 212.652344 "/></clipPath><clipPath id="f270cd357a"><path d="M 614.105469 208.753906 L 819.191406 208.753906 L 819.191406 374.898438 L 614.105469 374.898438 Z M 614.105469 208.753906 "/></clipPath><clipPath id="eee46a30b5"><path d="M 750.886719 212.652344 C 740.386719 210.296875 728.449219 208.753906 716.734375 208.753906 C 705.019531 208.753906 693.746094 210.078125 683.359375 212.433594 C 683.136719 212.503906 682.914062 212.503906 682.695312 212.578125 C 643.679688 221.992188 614.941406 246.851562 614.390625 275.902344 L 614.390625 374.898438 L 819.191406 374.898438 L 819.191406 275.976562 C 818.636719 246.707031 790.34375 221.847656 750.886719 212.652344 Z M 750.886719 212.652344 "/></clipPath></defs><g id="53bbb9936b"><g clip-rule="nonzero" clip-path="url(#26139b85b3)"><path style=" stroke:none;fill-rule:nonzero;fill:#ffffff;fill-opacity:1;" d="M 0 0.0898438 L 1024 0.0898438 L 1024 374.910156 L 0 374.910156 Z M 0 0.0898438 "/><path style=" stroke:none;fill-rule:nonzero;fill:#ffffff;fill-opacity:1;" d="M 0 0.0898438 L 1024 0.0898438 L 1024 374.910156 L 0 374.910156 Z M 0 0.0898438 "/></g><g clip-rule="nonzero" clip-path="url(#9b8e1ebb4d)"><g clip-rule="nonzero" clip-path="url(#e7852d0775)"><path style=" stroke:none;fill-rule:nonzero;fill:#ef2558;fill-opacity:1;" d="M 0 169.976562 L 204.902344 169.976562 L 204.902344 333.386719 L 0 333.386719 Z M 0 169.976562 "/></g></g><g clip-rule="nonzero" clip-path="url(#3600fa6d49)"><g clip-rule="nonzero" clip-path="url(#5224edf7d1)"><path style=" stroke:none;fill-rule:nonzero;fill:#ef2558;fill-opacity:1;" d="M 409.601562 169.976562 L 614.5 169.976562 L 614.5 333.386719 L 409.601562 333.386719 Z M 409.601562 169.976562 "/></g></g><g clip-rule="nonzero" clip-path="url(#f2f185ea56)"><g clip-rule="nonzero" clip-path="url(#e7ac33531f)"><path style=" stroke:none;fill-rule:nonzero;fill:#ef2558;fill-opacity:1;" d="M 819.199219 169.976562 L 1024.101562 169.976562 L 1024.101562 333.386719 L 819.199219 333.386719 Z M 819.199219 169.976562 "/></g></g><g clip-rule="nonzero" clip-path="url(#bd74bc3a2b)"><path style=" stroke:none;fill-rule:nonzero;fill:#ef2558;fill-opacity:1;" d="M 0 0.0898438 L 1024.507812 0.0898438 L 1024.507812 272.441406 L 0 272.441406 Z M 0 0.0898438 "/></g><g clip-rule="nonzero" clip-path="url(#7980e4b873)"><g clip-rule="nonzero" clip-path="url(#4d3e8780e1)"><path style=" stroke:none;fill-rule:nonzero;fill:#ffffff;fill-opacity:1;" d="M 409.589844 374.898438 L 204.503906 374.898438 L 204.503906 208.753906 L 409.589844 208.753906 Z M 409.589844 374.898438 "/></g></g><g clip-rule="nonzero" clip-path="url(#f270cd357a)"><g clip-rule="nonzero" clip-path="url(#eee46a30b5)"><path style=" stroke:none;fill-rule:nonzero;fill:#ffffff;fill-opacity:1;" d="M 819.191406 374.898438 L 614.105469 374.898438 L 614.105469 208.753906 L 819.191406 208.753906 Z M 819.191406 374.898438 "/></g></g></g></svg>